<?xml version="1.0" standalone="no"?>
<!DOCTYPE svg PUBLIC "-//W3C//DTD SVG 20010904//EN"
 "http://www.w3.org/TR/2001/REC-SVG-20010904/DTD/svg10.dtd">
<svg version="1.0" xmlns="http://www.w3.org/2000/svg"
 width="512.000000pt" height="512.000000pt" viewBox="0 0 512.000000 512.000000"
 preserveAspectRatio="xMidYMid meet">
<metadata>
Created by potrace 1.14, written by Peter Selinger 2001-2017
</metadata>
<g transform="translate(0.000000,512.000000) scale(0.100000,-0.100000)"
fill="#000000" stroke="none">
<path d="M2345 4773 c-542 -47 -1078 -298 -1468 -688 -195 -196 -333 -388
-457 -640 -119 -242 -193 -484 -231 -765 -19 -138 -17 -468 5 -610 91 -608
386 -1139 843 -1518 l52 -43 89 183 c49 101 171 354 272 562 171 351 183 380
166 390 -71 42 -113 112 -100 170 17 79 72 126 149 126 25 0 45 3 43 8 -123
242 -147 321 -155 510 -8 192 24 357 98 504 l29 57 -44 30 c-75 52 -96 131
-53 205 43 75 129 96 216 52 44 -23 50 -24 69 -10 12 8 70 44 128 79 122 74
154 80 219 40 22 -13 43 -25 46 -25 3 0 9 39 12 88 9 147 66 271 170 369 70
67 116 92 331 182 102 43 208 93 235 111 67 42 134 118 166 186 29 62 53 69
67 19 26 -98 27 -188 6 -350 -5 -34 27 -28 94 19 116 81 217 196 278 316 24
47 60 150 60 170 0 11 -208 105 -315 143 -130 46 -293 90 -310 84 -17 -7 -39
-71 -60 -171 -16 -74 -21 -83 -70 -133 -69 -69 -98 -71 -125 -10 -11 23 -20
59 -20 79 0 80 59 184 134 233 15 10 23 21 19 25 -23 22 -425 37 -588 23z"/>
<path d="M4194 4080 c16 -178 17 -234 7 -342 -17 -181 -54 -315 -124 -453
-100 -200 -283 -401 -507 -560 -30 -21 -59 -42 -63 -46 -5 -3 17 -21 48 -39
87 -50 89 -56 86 -240 l-2 -158 41 -23 c55 -31 84 -80 84 -141 0 -54 -21 -89
-74 -125 -41 -29 -91 -29 -150 -2 l-45 20 -15 -21 c-167 -237 -350 -373 -596
-445 -88 -25 -266 -50 -314 -43 -36 5 -36 5 -10 -30 32 -43 35 -92 12 -145
-37 -83 -131 -112 -216 -66 -21 11 -40 18 -43 15 -27 -27 -699 -1033 -694
-1039 14 -15 270 -99 386 -127 201 -49 329 -63 550 -64 391 -1 717 74 1060
244 252 124 444 262 640 457 431 432 674 995 692 1608 8 262 -16 475 -78 705
-106 389 -344 799 -619 1065 l-62 60 6 -65z"/>
</g>
</svg>
