<?xml version="1.0" standalone="no"?>
<!DOCTYPE svg PUBLIC "-//W3C//DTD SVG 20010904//EN"
 "http://www.w3.org/TR/2001/REC-SVG-20010904/DTD/svg10.dtd">
<svg version="1.0" xmlns="http://www.w3.org/2000/svg"
 width="512.000000pt" height="512.000000pt" viewBox="0 0 512.000000 512.000000"
 preserveAspectRatio="xMidYMid meet">
<metadata>
Created by potrace 1.11, written by Peter Selinger 2001-2013
</metadata>
<g transform="translate(0.000000,512.000000) scale(0.100000,-0.100000)"
fill="#000000" stroke="none">
<path d="M1365 4914 c-173 -26 -335 -74 -467 -140 -102 -51 -123 -76 -116
-137 l5 -42 -78 -57 c-75 -57 -78 -57 -106 -43 -36 19 -57 19 -93 0 -49 -26
-68 -88 -40 -139 14 -27 15 -24 -54 -118 -46 -64 -49 -66 -77 -56 -51 17 -97
-15 -141 -97 -177 -332 -243 -775 -164 -1092 113 -452 477 -984 1096 -1603
353 -354 798 -739 1239 -1073 201 -154 181 -154 382 0 85 64 184 141 221 171
l68 54 51 -46 c108 -97 267 -186 421 -237 568 -185 1195 74 1471 608 232 449
166 988 -166 1371 l-55 63 64 104 c125 204 206 388 256 575 54 206 49 457 -13
712 -151 617 -621 1087 -1209 1205 -122 25 -413 25 -530 0 -260 -55 -478 -163
-687 -339 l-83 -69 -82 69 c-207 173 -426 282 -678 337 -73 16 -369 29 -435
19z m2632 -2465 c637 -71 1055 -692 877 -1305 -156 -541 -728 -855 -1270 -698
-542 157 -855 728 -698 1272 113 390 462 685 864 731 108 12 120 12 227 0z"/>
<path d="M3619 2101 l-29 -29 0 -171 0 -171 -171 0 -171 0 -29 -29 -29 -29 0
-242 0 -242 29 -29 29 -29 171 0 171 0 0 -171 0 -171 29 -29 29 -29 242 0 242
0 29 29 29 29 0 171 0 171 171 0 171 0 29 29 29 29 0 242 0 242 -29 29 -29 29
-171 0 -171 0 0 171 0 171 -29 29 -29 29 -242 0 -242 0 -29 -29z m371 -342 l0
-171 29 -29 29 -29 171 0 171 0 0 -100 0 -100 -171 0 -171 0 -29 -29 -29 -29
0 -171 0 -171 -100 0 -100 0 0 171 0 171 -29 29 -29 29 -171 0 -171 0 0 100 0
100 171 0 171 0 29 29 29 29 0 171 0 171 100 0 100 0 0 -171z"/>
</g>
</svg>
